<svg viewBox="-27 -27 1387.2 1386.4" xmlns="http://www.w3.org/2000/svg">
	<defs>
		<linearGradient id="a" x1="-200.02" x2="858.36" y1="256" y2="256" gradientTransform="matrix(1.6753 0 0 1.6753 333.22 237.48)" gradientUnits="userSpaceOnUse">
			<stop stop-color="#444444" offset="0"/>
			<stop stop-color="#dddddd" offset="1"/>
		</linearGradient>
	</defs>
	<circle cx="666.6" cy="666.35" r="668.47" fill="url(#a)" stroke="#000" stroke-width="50.259"/>
	<g fill="#000">
		<path d="m733.04 347.82 248.89 248.9c5.293 5.2891 5.293 13.855 0 19.145l-67.008 67.016-268.04-268.05 67.016-67.016c5.2812-5.2852 13.859-5.2852 19.141 0z"/>
		<path d="m884.3 690.63-122.52 30.594-153.25-153.25 30.598-122.52z"/>
		<path d="m589.43 587.06-239.36 239.36 153.25 153.26 239.36-239.36zm-19.086 114.94-153.25 153.12c-2.4961 2.5938-5.9414 4.0625-9.543 4.0625s-7.0508-1.4688-9.543-4.0625c-5.25-5.2773-5.25-13.809 0-19.09l153.11-153.12c5.3203-5.2812 13.91-5.2812 19.227 0 5.2461 5.2812 5.2461 13.812 0 19.09zm38.18-38.312c-2.4961 2.5938-5.9414 4.0625-9.543 4.0625-3.6055 0-7.0508-1.4688-9.5508-4.0625-5.2461-5.2774-5.2461-13.809 0-19.09l9.6211-9.6094c5.2734-5.2539 13.805-5.2539 19.082 0 5.2773 5.3203 5.2773 13.898 0 19.223z"/>
		<path d="m330.97 845.62 153.17 153.17-57.445 57.434c-10.57 10.574-27.711 10.574-38.285 0l-114.88-114.88c-10.574-10.578-10.574-27.719 0-38.293z"/>
		<path d="m522.42 615.9-95.723 95.715-21.656-21.664c-5.2852-5.3203-5.2852-13.902 0-19.223l76.629-76.488c5.2774-5.2539 13.809-5.2539 19.086 0z"/>
		<path d="m928.22 415.06c-5.4766 0-10.414-3.2969-12.508-8.3477-2.0938-5.0586-.9375-10.879 2.9336-14.758l122.36-122.36c5.3086-5.1328 13.75-5.0586 18.977.16016 5.2226 5.2266 5.2969 13.664.164 18.98l-122.36 122.36c-2.5312 2.5391-5.9766 3.9609-9.5664 3.9609z"/>
		<path d="m833.46 366.22c-1.1875.008-2.3672-.14843-3.5078-.45703-3.4727-.93359-6.4297-3.1992-8.2188-6.3164-1.7969-3.1055-2.2852-6.8047-1.3516-10.273l19.711-73.512c2.1055-7.0039 9.3984-11.051 16.465-9.1641 7.0586 1.8867 11.344 9.0469 9.6719 16.164l-19.707 73.527c-1.5859 5.9141-6.9414 10.023-13.062 10.031z"/>
		<path d="m972.3 505.02c-6.7969-.004-12.527-5.043-13.414-11.781-.88281-6.7305 3.3594-13.082 9.9219-14.836l78.617-21.07c4.7187-1.3984 9.8242-.13281 13.344 3.3164 3.5157 3.4492 4.8828 8.5391 3.5664 13.277-1.3203 4.7461-5.1093 8.4062-9.8984 9.5547l-78.613 21.074c-1.1523.3086-2.332.46094-3.5234.46485z"/>
	</g>
</svg>
