<svg width="828.04" height="828.04" version="1.1" viewBox="-57 0 828.04 828.04" xmlns="http://www.w3.org/2000/svg">
	<defs>
		<linearGradient id="a" x1="-200.02" x2="858.36" y1="256" y2="256" gradientTransform="translate(158.02,158.02)" gradientUnits="userSpaceOnUse">
			<stop stop-color="#c04040" offset="0"/>
			<stop stop-color="#dddddd" offset="1"/>
		</linearGradient>
	</defs>
	<circle cx="357.02" cy="414.02" r="399.02" fill="url(#a)" stroke="#c04040" stroke-width="30"/>
	<g transform="translate(15,15)" fill="#fff">
		<path d="m299.39 173.92h85.57v14.398h30.902v-16.414c.004-15.93-12.949-28.891-28.871-28.891h-89.633c-15.922 0-28.875 12.961-28.875 28.891v16.414h30.906z"/>
		<path d="m487.23 310.77h-290.11c-7.9492 0-14.207 6.7812-13.566 14.707l24.254 299.91c1.3516 16.742 15.316 29.637 32.094 29.637h204.54c16.777 0 30.742-12.895 32.094-29.641l24.254-299.9c.64453-7.9258-5.6133-14.707-13.562-14.707zm-219.86 312.26c-.32422.0195-.64844.0312-.96875.0312-8.1016 0-14.902-6.3086-15.406-14.504l-15.199-246.21c-.52344-8.5195 5.957-15.852 14.473-16.375 8.4883-.51562 15.852 5.9492 16.375 14.473l15.195 246.21c.52734 8.5195-5.9531 15.848-14.469 16.375zm90.434-15.422c0 8.5312-6.918 15.449-15.453 15.449-8.5352 0-15.453-6.918-15.453-15.449v-246.21c0-8.5352 6.918-15.453 15.453-15.453 8.5312 0 15.453 6.918 15.453 15.453zm90.758-245.3-14.512 246.21c-.48047 8.2109-7.293 14.543-15.41 14.543-.30469 0-.61328-.008-.92188-.0234-8.5195-.5039-15.02-7.8164-14.516-16.336l14.508-246.21c.5-8.5195 7.7891-15.02 16.332-14.516 8.5195.5 15.02 7.8164 14.52 16.336z"/>
		<path d="m540.67 263.08-10.148-30.422c-2.6758-8.0195-10.184-13.43-18.641-13.43h-339.41c-8.4531 0-15.965 5.4102-18.637 13.43l-10.148 30.422c-1.957 5.8672.58985 11.852 5.3438 14.836 1.9375 1.2148 4.2305 1.9453 6.75 1.9453h372.8c2.5195 0 4.8164-.73047 6.75-1.9492 4.7539-2.9844 7.3008-8.9688 5.3438-14.832z"/>
	</g>
</svg>
